<?xml version="1.0" encoding="utf-8"?>
<!-- Generator: Adobe Illustrator 25.2.2, SVG Export Plug-In . SVG Version: 6.00 Build 0)  -->
<svg version="1.1" id="Calque_1" xmlns="http://www.w3.org/2000/svg" xmlns:xlink="http://www.w3.org/1999/xlink" x="0px" y="0px"
	 viewBox="0 0 594.2 430.8" style="enable-background:new 0 0 594.2 430.8;" xml:space="preserve">
<style type="text/css">
	.st0{fill:#0061EE;}
	.st1{opacity:0.5;}
	.st2{fill:url(#SVGID_1_);}
	.st3{fill:#FF3C00;}
</style>
<g>
	<g id="Calque_2_1_">
		<g id="Calque_1-2">
			<g>
				<path class="st0" d="M0,359.4L75.6,288c20.6,24.8,39.9,39.3,66.6,39.3c29.1,0,47.8-20,47.8-59.3V0h116.8v268.7
					c0,53.2-13.3,90.8-41.8,119.2c-27.8,27.8-67.8,43-116.2,43C75,430.8,30.2,400,0,359.4z"/>
			</g>
			<g class="st1">

					<linearGradient id="SVGID_1_" gradientUnits="userSpaceOnUse" x1="151.134" y1="203.8887" x2="270.034" y2="246.1687" gradientTransform="matrix(1 0 0 -1 0 432)">
					<stop  offset="0" style="stop-color:#FFFFFF;stop-opacity:0"/>
					<stop  offset="1" style="stop-color:#000000"/>
				</linearGradient>
				<path class="st2" d="M0,359.4L75.6,288c20.6,24.8,39.9,39.3,66.6,39.3c29.1,0,47.8-20,47.8-59.3V0h116.8v268.7
					c0,53.2-13.3,90.8-41.8,119.2c-27.8,27.8-67.8,43-116.2,43C75,430.8,30.2,400,0,359.4z"/>
			</g>
			<polygon class="st3" points="477.4,0 392.1,267.1 306.8,0 190,0 342.1,425 442,425 594.2,0 			"/>
		</g>
	</g>
</g>
</svg>
